# xmcd CD database file
#
# Track frame offsets:
#	150
#	20260
#	43775
#	65355
#	87547
#	106110
#	124032
#	142665
#	164847
#	186955
#	205270
#	226300
#	247572
#	266527
#	284345
#	306447
#
# Disc length: 4429 seconds
#
# Revision: 0
# Processed by: cddbd v1.5.1PL0 Copyright (c) Steve Scherf et al.
# Submitted via: CDex 1.50
#
DISCID=db114b10
DTITLE=Heaven 17 - Bigger Than America
DYEAR=1996
DGENRE=Electronic
TTITLE0=Dive
TTITLE1=Designing Heaven
TTITLE2=We Blame Love
TTITLE3=Another Big Idea
TTITLE4=Freak!
TTITLE5=Bigger Than America
TTITLE6=Unreal Everything
TTITLE7=The Big Dipper
TTITLE8=Do I Believe?
TTITLE9=Resurrection Man
TTITLE10=Maybe Forever
TTITLE11=An Electronic Prayer
TTITLE12=Bigger Than America (version)
TTITLE13=Theme from Unreal Everything
TTITLE14=Trans European Heaven
TTITLE15=Moroder's Subterranean Heaven
EXTD=YEAR: 1996
EXTT0=
EXTT1=
EXTT2=
EXTT3=
EXTT4=
EXTT5=
EXTT6=
EXTT7=
EXTT8=
EXTT9=
EXTT10=
EXTT11=
EXTT12=
EXTT13=
EXTT14=
EXTT15=
PLAYORDER=
